<svg xmlns="http://www.w3.org/2000/svg" viewBox="0 0 595.8 715.4" width="596" height="715"><path d="M238.3 59.7 L297.9 0 L297.9 715.4 L0 596.1 L0 298.1 L59.6 238.5 L59.6 556.4 L119.1 566.3 L119.1 178.9 L178.7 119.3 L178.7 576.3 L238.3 586.2 Z" fill="#808080"/><path d="M595.8 347.8 L595.8 298.1 L297.9 0 L297.9 715.4 L595.8 596.1 L595.8 461.3 L506.4 440.4 L506.4 511 L536.2 511 L536.2 556.4 L357.5 586.2 L357.5 165 Z" fill="#333333"/><path d="M357.5 555 L536.2 556.4 M357.5 395.9 L595.8 347.8 M119.1 552.8 L59.6 556.4 M238.3 570.1 L178.7 576.3 M59.6 238.5 L119.1 260.2 M178.7 119.3 L238.3 156.3 M357.5 511 L506.4 511 M506.4 440.4 L357.5 455.1" fill="none" stroke="#808080" stroke-width="1" vector-effect="non-scaling-stroke"/></svg>
